<?xml version="1.0" encoding="UTF-8"?>
<svg id="Layer_1" data-name="Layer 1" xmlns="http://www.w3.org/2000/svg" viewBox="0 0 106.61 93.26">
  <defs>
    <style>
      .cls-1 {
        fill: #049232;
      }

      .cls-2 {
        fill: #2ea755;
      }

      .cls-3 {
        fill: #40af64;
      }

      .cls-4 {
        fill: #2ea754;
      }
    </style>
  </defs>
  <path class="cls-1" d="M99.54,0c.99.33,1.98.66,3,1,4.01,9.9,4.27,20.48,4,31q-.03,1.18-.05,2.38c-.99,15.28-10.27,30.19-20.95,40.62-3.47,3.02-6.94,5.16-11.06,7.19-1.02.51-2.04,1.02-3.1,1.54-7.96,3.56-17.97,3.58-26.35,1.33-11.91-4.76-18.2-12.59-23.49-24.06-3.93,1.31-5.19,3.46-7,7-2.58,6.41-3.38,12.56-3.59,19.43q-.41,2.57-1.78,4.39c-2.32,1.67-3.84,1.6-6.63,1.18C-.9,87.84-.04,82.01.54,76c3.27-14.34,10.74-22.94,22.56-31.09,9.27-5.14,18.14-5.43,28.5-5.6,1.45-.03,2.9-.07,4.36-.1,3.53-.08,7.05-.15,10.58-.21q-.99-2.47-2-5c-3.79-.06-7.58-.09-11.38-.12-1.06-.02-2.12-.03-3.21-.05-5.98-.04-11.45.34-17.28,1.74q-2.13.43-6.13.43v2h-4c.95-7.3,6.06-12.39,11.4-17.13,10.68-8.06,22.87-7.22,35.72-7.1,9.28.07,16.53-.59,23.88-6.77,2.22-2.24,4.08-4.48,6-7Z"/>
  <path class="cls-2" d="M36.54,19l2,1-12,12c0-3.72.87-4.36,3.31-7.06q.92-1.04,1.86-2.1,1.82-1.84,4.82-3.84Z"/>
  <path class="cls-4" d="M18.54,48l2,1c-.78.77-1.56,1.54-2.37,2.34-1.02,1.01-2.04,2.03-3.07,3.04q-.77.76-1.56,1.54-2.86,2.77-5,6.09l-2-1q7.11-9.59,12-13Z"/>
  <path class="cls-3" d="M99.54,0c.99.33,1.98.66,3,1v2q-2.38,1.69-5,3c-.66-.33-1.32-.66-2-1,1.32-1.65,2.64-3.3,4-5Z"/>
</svg>